<svg width="24" height="20" viewBox="0 0 24 20" fill="none" xmlns="http://www.w3.org/2000/svg">
<g clip-path="url(#clip0_1_141)">
<mask id="mask0_1_141" style="mask-type:luminance" maskUnits="userSpaceOnUse" x="0" y="0" width="24" height="19">
<path d="M0.479004 0.609375H23.4686V18.599H0.479004V0.609375Z" fill="white"/>
</mask>
<g mask="url(#mask0_1_141)">
<path d="M23.4634 11.2812C23.4634 15.3177 20.1821 18.5989 16.1561 18.5989H10.8905C10.203 18.5989 9.64046 18.0416 9.64046 17.3489C9.64046 16.8333 9.95296 16.3906 10.3905 16.1979C10.5467 16.1354 10.7134 16.0989 10.8905 16.0989H16.1561C18.8071 16.0989 20.9634 13.9375 20.9634 11.2812C20.9634 8.63018 18.8071 6.46873 16.1561 6.46873H8.45296V8.67185C8.45296 9.20831 8.01025 9.59373 7.52588 9.59373C7.37484 9.59373 7.21859 9.55206 7.07275 9.46873L1.104 6.0156C0.489422 5.65623 0.489422 4.77081 1.104 4.41664L7.07275 0.963517C7.68734 0.60935 8.45296 1.05206 8.45296 1.76039V3.96352H16.1561C20.1821 3.96352 23.4634 7.24477 23.4634 11.2812Z" fill="black"/>
</g>
</g>
<defs>
<clipPath id="clip0_1_141">
<rect width="24" height="19" fill="white" transform="translate(0 0.5)"/>
</clipPath>
</defs>
</svg>
