<svg width="17" height="18" viewBox="0 0 17 18" fill="none" xmlns="http://www.w3.org/2000/svg">
<g clip-path="url(#clip0_1_37)">
<mask id="mask0_1_37" style="mask-type:luminance" maskUnits="userSpaceOnUse" x="0" y="1" width="17" height="17">
<path d="M0.796875 1.42188H16.7865V17.4167H0.796875V1.42188Z" fill="white"/>
</mask>
<g mask="url(#mask0_1_37)">
<path fill-rule="evenodd" clip-rule="evenodd" d="M11.0731 13.1146L14.9897 17.0313C15.3804 17.4219 16.0106 17.4219 16.396 17.0313C16.7866 16.6458 16.7866 16.0156 16.396 15.625L12.4845 11.7135C13.271 10.6406 13.7345 9.31771 13.7345 7.89063C13.7345 4.31771 10.8387 1.42188 7.271 1.42188C3.69808 1.42188 0.802246 4.31771 0.802246 7.89063C0.802246 11.4583 3.69808 14.3542 7.271 14.3542C8.69287 14.3542 10.0054 13.8958 11.0731 13.1146ZM7.271 3.41146C9.73975 3.41146 11.7502 5.41667 11.7502 7.89063C11.7502 10.3594 9.73975 12.3698 7.271 12.3698C4.79704 12.3698 2.79183 10.3594 2.79183 7.89063C2.79183 5.41667 4.79704 3.41146 7.271 3.41146Z" fill="black"/>
</g>
</g>
<defs>
<clipPath id="clip0_1_37">
<rect width="17" height="17" fill="white" transform="translate(0 0.5)"/>
</clipPath>
</defs>
</svg>
