<svg width="69" height="36" viewBox="0 0 69 36" fill="none" xmlns="http://www.w3.org/2000/svg">
<g clip-path="url(#clip0_1_53)">
<path fill-rule="evenodd" clip-rule="evenodd" d="M31.099 0.744751H22.3281L24.6615 5.26558H53.6615C55.2344 5.26558 56.4427 5.62496 57.2917 6.34892C58.1406 7.07288 58.5625 8.09371 58.5625 9.42183C58.5625 10.7708 58.1198 11.8073 57.2396 12.5312C56.3542 13.25 55.0885 13.6145 53.4427 13.6145H30.8958V22.8229L19.526 0.744751H16.474L0.71875 31.6145H5.83854L9.83333 23.7708H26.2083L30.2344 31.6145H35.7604V29.5885C36.0104 29.6406 36.2604 29.6927 36.5104 29.7395C36.8906 29.8073 37.151 29.9843 37.2969 30.3333C37.3646 30.4895 37.4635 30.6406 37.526 30.802C38.5313 33.2343 40.5469 34.2135 42.9896 34.5312C44.0312 34.6666 45.0781 34.7291 46.099 35.0104C46.276 35.0677 46.526 35.177 46.6615 34.9791C46.8438 34.7291 46.5417 34.5989 46.4375 34.4218C45.1042 32.026 42.8958 30.927 40.3333 30.3645C40.1875 30.3333 40.0521 30.276 39.9115 30.1875C41.7917 30.2812 43.651 30.125 45.4948 29.8177C45.8854 29.75 46.1042 29.9843 46.3229 30.2187C47.4844 31.4843 48.9271 32.2656 50.5365 32.8593C52.2031 33.4895 53.8281 33.3073 55.4583 32.7968C57.4167 32.177 59 30.8541 60.8125 29.9687C60.9375 29.9114 61.099 29.8125 61.0365 29.625C60.9792 29.4687 60.8281 29.5468 60.7135 29.552C59.4948 29.6302 58.3333 29.276 57.1719 29.0104C55.3906 28.6145 53.6094 28.5208 51.8281 28.9687C51.2344 29.1198 50.7344 29.4479 50.1927 29.7083C49.0625 30.2448 47.9115 30.5989 46.6562 29.6666C50.0677 28.9375 53.2083 27.776 56.151 26.1093C57.7552 25.0468 59.3542 23.9739 60.6406 22.526C60.9271 22.2031 61.3594 22.177 61.724 22.052C64.9062 21 66.7448 18.6458 67.9375 15.6875C68.276 14.8541 68.4688 13.9739 68.5625 13.0781C68.5833 12.8854 68.6927 12.6718 68.4635 12.5364C68.3906 12.4895 68.3177 12.4687 68.25 12.4687H68.2344C68.099 12.4739 67.9688 12.5468 67.8542 12.6458C67.7188 12.7656 67.5885 12.8802 67.4688 13C67.0625 13.4218 66.6042 13.7448 66.0208 13.8802C65.5 14.0052 65.0677 14.3125 64.651 14.6302C62.2813 16.4739 60.6146 18.7708 59.974 21.7343C59.8802 22.1927 59.6406 22.5468 59.349 22.901C57.9219 24.6823 56.0104 25.802 53.9896 26.776C51.1823 28.1406 48.224 29.0625 45.1406 29.4739C41.9531 29.901 38.8021 29.9114 35.7604 29.1041V18.1302H53.9531C56.8333 18.1302 59.1563 17.3125 60.9219 15.677C62.6875 14.0364 63.5729 11.927 63.5729 9.34892C63.5729 6.62496 62.6823 4.51038 60.9062 3.00517C59.125 1.49996 56.6354 0.744751 53.4427 0.744751H31.099ZM18.0365 7.86454L24.0625 19.6875H11.9375L18.0365 7.86454ZM58.0104 18.2239C56.1823 19.2291 54.1875 19.9739 52.8229 21.6927C52.0312 22.7031 51.526 23.8698 50.875 24.9635C50.2813 25.9739 49.8281 27.0625 49.0312 27.9479C48.974 28.0208 48.9271 28.1093 48.8802 28.1823C48.9323 28.3489 49.0469 28.3906 49.1719 28.3489C51.3802 27.5468 53.5781 26.7343 55.2917 25.0208C56.2917 24.026 56.9688 22.8906 57.1667 21.4635C57.3073 20.4323 57.526 19.3958 58.2083 18.5416C58.2813 18.4479 58.401 18.3593 58.2865 18.2239C58.25 18.1875 58.2135 18.1718 58.1771 18.1718C58.1198 18.1718 58.0625 18.1979 58.0104 18.2239ZM51.5365 20.5885H51.5312C51.4531 20.5885 51.3802 20.6406 51.3073 20.6823C49.8021 21.6198 48.1198 22.0937 46.4219 22.5C44.4427 22.9791 42.9219 24.151 41.5729 25.5937C41.3073 25.8906 41.0469 26.1927 40.7917 26.5C40.2865 27.1041 39.7031 27.5989 38.9271 27.8177C38.7552 27.8698 38.5521 27.9479 38.5365 28.1198C38.5052 28.3333 38.6979 28.4479 38.8802 28.5573C39.5469 28.9531 40.3073 28.9948 41.0469 29.0781C41.4635 29.125 41.8958 29.0677 42.1562 29.0625C44.6094 28.5937 46.7708 27.8958 48.3333 26.0104C48.5885 25.6979 48.8125 25.3698 49.0104 25.026C49.8281 23.6823 50.5052 22.2604 51.5781 21.0833C51.6719 20.9791 51.7865 20.8541 51.6875 20.6927C51.6406 20.6145 51.5885 20.5885 51.5365 20.5885ZM67.6875 21.4739H67.6823C67.6198 21.4739 67.5573 21.5052 67.5 21.5416C66.3698 22.2135 65.0885 22.3333 63.8229 22.4687C61.9219 22.6666 60.2656 23.427 58.7969 24.625C58.0052 25.2708 57.1875 25.8958 56.151 26.1145C56 26.375 55.9427 26.5989 56.3073 26.7656C57.5521 27.3125 58.8385 27.7864 60.2135 27.6406C61.5208 27.5052 62.7448 27.0364 63.8073 26.2395C65.3229 25.1041 66.4896 23.6406 67.6354 22.1562C67.7135 22.0573 67.7865 21.9479 67.8281 21.8333C67.8594 21.75 67.875 21.6198 67.8281 21.552C67.7917 21.4948 67.7448 21.4739 67.6979 21.4739H67.6875Z" fill="black"/>
</g>
<defs>
<clipPath id="clip0_1_53">
<rect width="69" height="35" fill="white" transform="translate(0 0.5)"/>
</clipPath>
</defs>
</svg>
