<svg width="24" height="25" viewBox="0 0 24 25" fill="none" xmlns="http://www.w3.org/2000/svg">
<g clip-path="url(#clip0_1_196)">
<path d="M19.0202 14.1316L14.1284 16.8479V22.2836L19.0202 25L23.9121 22.2836V16.8479L19.0202 14.1316ZM21.7366 21.0057L19.0202 22.5154L16.3039 21.0057V18.1289L19.0202 16.6191L21.7366 18.1289V21.0057Z" fill="black"/>
<path d="M17.9474 19.7413C17.9703 19.8823 18.0207 20.0174 18.0958 20.1389C18.1708 20.2605 18.2691 20.366 18.385 20.4495C18.5009 20.5331 18.6321 20.5929 18.7711 20.6258C18.9101 20.6586 19.0542 20.6637 19.1952 20.6409C19.3362 20.618 19.4713 20.5676 19.5929 20.4925C19.7144 20.4174 19.8199 20.3191 19.9034 20.2032C19.987 20.0874 20.0469 19.9562 20.0797 19.8172C20.1125 19.6781 20.1177 19.534 20.0948 19.393C20.0719 19.252 20.0215 19.1169 19.9464 18.9954C19.8713 18.8739 19.773 18.7683 19.6572 18.6848C19.5413 18.6013 19.4101 18.5414 19.2711 18.5085C19.1321 18.4757 18.9879 18.4706 18.8469 18.4935C18.7059 18.5163 18.5708 18.5668 18.4493 18.6418C18.3278 18.7169 18.2222 18.8152 18.1387 18.9311C18.0552 19.047 17.9953 19.1782 17.9625 19.3172C17.9296 19.4562 17.9245 19.6003 17.9474 19.7413Z" fill="black"/>
<path d="M17.2076 12.0839C16.8301 11.8997 16.4438 11.7332 16.0515 11.5906C17.5315 10.3929 18.4766 8.56515 18.4766 6.52045C18.4766 2.92439 15.5522 0 11.9561 0C8.36008 0 5.43569 2.92439 5.43569 6.52045C5.43569 8.56812 6.38374 10.3988 7.86376 11.5936C3.28103 13.2697 0 17.6712 0 22.8275H2.17249C2.17249 17.4334 6.56205 13.0468 11.9532 13.0468C13.4599 13.0468 14.9043 13.3797 16.2476 14.0365L17.2076 12.0839ZM11.9561 2.17249C14.3545 2.17249 16.3041 4.12209 16.3041 6.52045C16.3041 8.91881 14.3545 10.8684 11.9561 10.8684C9.55777 10.8684 7.60818 8.91881 7.60818 6.52045C7.60818 4.12209 9.56075 2.17249 11.9561 2.17249Z" fill="black"/>
</g>
<defs>
<clipPath id="clip0_1_196">
<rect width="24" height="25" fill="white"/>
</clipPath>
</defs>
</svg>
