<svg width="34" height="35" viewBox="0 0 34 35" fill="none" xmlns="http://www.w3.org/2000/svg">
<g clip-path="url(#clip0_1_31)">
<mask id="mask0_1_31" style="mask-type:luminance" maskUnits="userSpaceOnUse" x="0" y="0" width="34" height="34">
<path d="M0.364746 0.96875H33.3491V33.8333H0.364746V0.96875Z" fill="white"/>
</mask>
<g mask="url(#mask0_1_31)">
<path d="M16.7762 0.96875C15.7033 0.96875 14.6356 1.07813 13.5783 1.28646C12.521 1.49479 11.495 1.80729 10.495 2.21875C9.50016 2.63542 8.55745 3.14062 7.66162 3.73958C6.76579 4.33854 5.93246 5.01562 5.17204 5.78125C4.41162 6.54167 3.72933 7.36979 3.13037 8.26563C2.53141 9.16146 2.0262 10.1094 1.61475 11.1042C1.20329 12.099 0.890788 13.125 0.682454 14.1823C0.468912 15.2396 0.364746 16.3073 0.364746 17.3854C0.364746 18.4635 0.468912 19.5313 0.682454 20.5885C0.890788 21.6458 1.20329 22.6719 1.61475 23.6667C2.0262 24.6615 2.53141 25.6094 3.13037 26.5052C3.72933 27.401 4.41162 28.2292 5.17204 28.9896C5.93246 29.7552 6.76579 30.4323 7.66162 31.0313C8.55745 31.6302 9.50016 32.1354 10.495 32.5521C11.495 32.9635 12.521 33.2708 13.5783 33.4844C14.6356 33.6927 15.7033 33.7969 16.7762 33.7969C17.8543 33.7969 18.922 33.6927 19.9793 33.4844C21.0366 33.2708 22.0627 32.9635 23.0575 32.5521C24.0575 32.1354 25.0002 31.6302 25.896 31.0313C26.7918 30.4323 27.6252 29.7552 28.3856 28.9896C29.146 28.2292 29.8283 27.401 30.4272 26.5052C31.0262 25.6094 31.5314 24.6615 31.9429 23.6667C32.3543 22.6719 32.6668 21.6458 32.8752 20.5885C33.0887 19.5313 33.1929 18.4635 33.1929 17.3854C33.1929 16.3073 33.0835 15.2396 32.8752 14.1823C32.6616 13.1302 32.3491 12.1042 31.9377 11.1094C31.521 10.1146 31.0158 9.16667 30.4168 8.27083C29.8179 7.375 29.1408 6.54687 28.3752 5.78646C27.6147 5.02604 26.7866 4.34375 25.8908 3.74479C24.995 3.14583 24.0522 2.64063 23.0575 2.22917C22.0627 1.8125 21.0366 1.5 19.9793 1.29167C18.922 1.07812 17.8543 0.973959 16.7762 0.96875ZM23.3439 19.026H18.422V23.9531C18.422 24.1667 18.3804 24.3802 18.297 24.5781C18.2137 24.7813 18.0939 24.9583 17.9377 25.1094C17.7866 25.2656 17.6095 25.3854 17.4064 25.4688C17.2033 25.5521 16.995 25.5938 16.7762 25.5938C16.5627 25.5938 16.3491 25.5521 16.1512 25.4688C15.9481 25.3854 15.771 25.2656 15.62 25.1094C15.4637 24.9583 15.3439 24.7813 15.2606 24.5781C15.1772 24.3802 15.1356 24.1667 15.1356 23.9531V19.026H10.2137C9.99496 19.026 9.78662 18.9844 9.5835 18.901C9.38558 18.8177 9.2085 18.6979 9.05225 18.5469C8.896 18.3906 8.78141 18.2135 8.69808 18.0156C8.61475 17.8125 8.57308 17.6042 8.57308 17.3854C8.57308 17.1667 8.61475 16.9583 8.69808 16.7552C8.78141 16.5573 8.896 16.3802 9.05225 16.224C9.2085 16.0729 9.38558 15.9531 9.5835 15.8698C9.78662 15.7865 9.99496 15.7448 10.2137 15.7448H15.1356V10.8177C15.1356 10.6042 15.1772 10.3906 15.2606 10.1927C15.3439 9.98958 15.4637 9.8125 15.62 9.66146C15.771 9.50521 15.9481 9.38542 16.1512 9.30208C16.3491 9.21875 16.5627 9.17708 16.7762 9.17708C16.995 9.17708 17.2033 9.21875 17.4064 9.30208C17.6095 9.38542 17.7866 9.50521 17.9377 9.66146C18.0939 9.8125 18.2137 9.98958 18.297 10.1927C18.3804 10.3906 18.422 10.6042 18.422 10.8177V15.7448H23.3439C23.5627 15.7448 23.771 15.7865 23.9741 15.8698C24.172 15.9531 24.3491 16.0729 24.5054 16.224C24.6564 16.3802 24.7762 16.5573 24.8595 16.7552C24.9429 16.9583 24.9845 17.1667 24.9845 17.3854C24.9845 17.6042 24.9429 17.8125 24.8595 18.0156C24.7762 18.2135 24.6564 18.3906 24.5054 18.5469C24.3491 18.6979 24.172 18.8177 23.9741 18.901C23.771 18.9844 23.5627 19.026 23.3439 19.026Z" fill="#126C41"/>
</g>
</g>
<defs>
<clipPath id="clip0_1_31">
<rect width="34" height="34" fill="white" transform="translate(0 0.5)"/>
</clipPath>
</defs>
</svg>
