<svg width="23" height="26" viewBox="0 0 23 26" fill="none" xmlns="http://www.w3.org/2000/svg">
<g clip-path="url(#clip0_1_174)">
<mask id="mask0_1_174" style="mask-type:luminance" maskUnits="userSpaceOnUse" x="0" y="0" width="23" height="26">
<path d="M0.572754 0.401123H22.7082V25.448H0.572754V0.401123Z" fill="white"/>
</mask>
<g mask="url(#mask0_1_174)">
<path fill-rule="evenodd" clip-rule="evenodd" d="M11.7707 16.3333V18.375C11.7707 18.4323 11.8019 18.4792 11.8488 18.5104L13.4478 19.4323C13.5519 19.4896 13.6821 19.4167 13.6821 19.2969V16.5677L20.2759 12.7656L22.354 13.9635C22.5207 14.0573 22.6196 14.224 22.6196 14.4167V21.4219C22.6196 21.6146 22.5207 21.7813 22.354 21.8802L16.2863 25.3802C16.1196 25.4792 15.9269 25.4792 15.7603 25.3802L9.69255 21.8802C9.52588 21.7813 9.43213 21.6146 9.43213 21.4219V15.0833L11.3019 16.1667C11.453 16.25 11.6092 16.3073 11.7707 16.3333ZM12.2498 0.515625C12.0832 0.416667 11.8905 0.416667 11.7238 0.515625L5.65609 4.02083C5.48942 4.11458 5.39046 4.28125 5.39046 4.47396V11.4792C5.39046 11.6719 5.48942 11.8385 5.65609 11.9323L11.7238 15.4375C11.8905 15.5365 12.0832 15.5365 12.2498 15.4375L18.3175 11.9323C18.4842 11.8385 18.578 11.6719 18.578 11.4792V4.47396C18.578 4.28125 18.4842 4.11458 18.3175 4.02083L16.2394 2.81771L9.64567 6.625V9.34896C9.64567 9.47396 9.51546 9.54688 9.4113 9.48438L7.81234 8.5625C7.76025 8.53646 7.73421 8.48438 7.73421 8.42708V5.52083L14.328 1.71354L12.2498 0.515625ZM4.55192 9.40104L2.9113 10.349V13.2552C2.9113 13.3125 2.93734 13.3646 2.98942 13.3906L4.58838 14.3177C4.69255 14.375 4.82275 14.3021 4.82275 14.1771V12.2969C4.93213 12.4427 5.07276 12.5677 5.23421 12.6615L8.59359 14.599V19.5938L7.42692 20.2656C7.26025 20.3646 7.06755 20.3646 6.90088 20.2656L0.833171 16.7604C0.666504 16.6667 0.572754 16.5 0.572754 16.3073V9.30208C0.572754 9.10938 0.666504 8.94271 0.833171 8.84896L4.55192 6.69792V9.40104Z" fill="black"/>
</g>
</g>
<defs>
<clipPath id="clip0_1_174">
<rect width="23" height="26" fill="white"/>
</clipPath>
</defs>
</svg>
