<svg width="26" height="26" viewBox="0 0 26 26" fill="none" xmlns="http://www.w3.org/2000/svg">
<mask id="mask0_1_206" style="mask-type:luminance" maskUnits="userSpaceOnUse" x="0" y="0" width="26" height="26">
<path d="M25.9998 0.333252H0.666504V25.6666H25.9998V0.333252Z" fill="white"/>
</mask>
<g mask="url(#mask0_1_206)">
<mask id="mask1_1_206" style="mask-type:luminance" maskUnits="userSpaceOnUse" x="2" y="1" width="24" height="24">
<path d="M2 1.44263H25.5677V24.1614H2V1.44263Z" fill="white"/>
</mask>
<g mask="url(#mask1_1_206)">
<path d="M24.1508 13.2916H23.1977V23.1145C23.1769 23.3905 23.0675 23.6249 22.8592 23.8072C22.6508 23.9947 22.4061 24.078 22.13 24.0676H16.4738V17.3697C16.4738 17.177 16.4008 17.0155 16.2654 16.8749C16.13 16.7395 15.9633 16.6718 15.7706 16.6718H11.6665C11.4738 16.6718 11.3123 16.7395 11.1717 16.8749C11.0363 17.0155 10.9686 17.177 10.9686 17.3697V24.0676H5.3123C5.03626 24.078 4.79147 23.9947 4.58314 23.8124C4.38001 23.6249 4.26543 23.3958 4.2498 23.1145V13.2916H3.28626C2.22376 13.2916 1.64564 12.2916 2.34355 11.6458L12.8696 1.91659C13.1404 1.68221 13.4581 1.56763 13.8175 1.56763C14.1769 1.57284 14.4946 1.68742 14.7654 1.92179C18.2133 5.16138 21.6561 8.40617 25.1092 11.651C25.7915 12.302 25.2133 13.2916 24.1508 13.2916Z" fill="black"/>
</g>
</g>
</svg>
