<svg width="28" height="29" viewBox="0 0 28 29" fill="none" xmlns="http://www.w3.org/2000/svg">
<path d="M14.25 1C6.93222 1 1 6.93222 1 14.25C1 21.5678 6.93222 27.5 14.25 27.5C21.5678 27.5 27.5 21.5678 27.5 14.25C27.5 6.93222 21.5678 1 14.25 1ZM9.48828 6.26312C9.76128 6.24702 10.008 6.4102 10.1951 6.69982L12.0066 10.1352C12.1974 10.5423 12.089 10.9782 11.8044 11.2691L10.9747 12.0988C10.9235 12.169 10.8898 12.248 10.889 12.3349C11.2072 13.5666 12.1724 14.7028 13.024 15.4841C13.8756 16.2654 14.7909 17.3232 15.979 17.5738C16.1259 17.6148 16.3058 17.6295 16.4109 17.5318L17.3749 16.55C17.7076 16.2978 18.189 16.1756 18.5443 16.3818H18.5604L21.8292 18.3114C22.3091 18.6121 22.3588 19.1935 22.0152 19.5471L19.7638 21.7808C19.4313 22.1217 18.9896 22.2364 18.5605 22.2369C16.6625 22.18 14.8691 21.2485 13.396 20.2911C10.9781 18.5321 8.76024 16.3504 7.36784 13.7146C6.83382 12.6094 6.2065 11.1991 6.26637 9.96546C6.27171 9.50135 6.39728 9.04668 6.72411 8.74754L8.97557 6.49608C9.15096 6.34684 9.32447 6.27279 9.48828 6.26312Z" fill="black"/>
</svg>
