<svg width="35" height="35" viewBox="0 0 35 35" fill="none" xmlns="http://www.w3.org/2000/svg">
<mask id="mask0_3_4574" style="mask-type:luminance" maskUnits="userSpaceOnUse" x="0" y="0" width="35" height="35">
<path d="M0.71875 0.4375H34.6979V34.4219H0.71875V0.4375Z" fill="white"/>
</mask>
<g mask="url(#mask0_3_4574)">
<path d="M17.8906 0.4375C13.1823 0.4375 12.6198 0.437499 10.8333 0.53125C9.04167 0.53125 7.72396 0.90625 6.69271 1.28125C5.5625 1.75521 4.61979 2.31771 3.68229 3.26042C2.73958 4.19792 2.17708 5.14063 1.70313 6.27083C1.23437 7.40104 0.953125 8.61979 0.953125 10.4115C0.765625 12.3854 0.765625 12.9479 0.765625 17.5625C0.765625 22.2656 0.765626 22.8281 0.859375 24.6198C0.859375 26.4063 1.23438 27.724 1.60938 28.7552C2.08333 29.8854 2.64583 30.8281 3.58854 31.7708C4.52604 32.7083 5.46875 33.276 6.59896 33.7448C7.72396 34.2135 8.94792 34.4948 10.7396 34.4948C12.526 34.4948 13.1823 34.5938 17.7917 34.5938C22.4063 34.5938 23.0625 34.5938 24.849 34.4948C26.6406 34.4948 27.9583 34.1198 28.9896 33.7448C30.1198 33.276 31.0625 32.7083 32 31.7708C32.9427 30.8281 33.5052 29.8854 33.9792 28.7552C34.3542 27.6302 34.7292 26.4063 34.7292 24.6198C34.7292 22.8281 34.8229 22.1719 34.8229 17.5625C34.8229 12.8542 34.8229 12.2917 34.7292 10.5052C34.7292 8.71354 34.3542 7.40104 33.9792 6.36458C33.5052 5.23437 32.9427 4.29167 32 3.35417C31.0625 2.41146 30.1198 1.84896 28.9896 1.375C27.8646 0.906251 26.6406 0.625 24.849 0.625C23.1563 0.4375 22.5937 0.4375 17.8906 0.4375ZM16.3854 3.54167C16.8542 3.54167 17.3229 3.54167 17.8906 3.54167C22.5 3.54167 22.9687 3.54167 24.849 3.63542C26.5469 3.63542 27.3906 4.01042 28.0521 4.19792C28.8958 4.48437 29.4635 4.85937 30.026 5.51563C30.5885 6.08333 30.9688 6.64583 31.3438 7.49479C31.5313 8.05729 31.8125 9 31.9063 10.6927C31.9063 12.4792 32 13.0469 32 17.6563C32 22.2656 32 22.7344 31.9063 24.6198C31.9063 26.3125 31.5313 27.1563 31.3438 27.8177C31.0625 28.6615 30.6823 29.2292 30.026 29.7917C29.4635 30.3594 28.8958 30.7344 28.0521 31.1094C27.4844 31.3906 26.5469 31.5781 24.849 31.6719C23.0625 31.6719 22.5 31.7708 17.8906 31.7708C13.276 31.7708 12.8073 31.7708 10.9271 31.6719C9.23438 31.6719 8.38542 31.2969 7.72396 31.1094C6.88021 30.8281 6.3125 30.4531 5.75 29.7917C5.1875 29.2292 4.80729 28.6615 4.43229 27.8177C4.24479 27.25 3.96354 26.3125 3.86979 24.6198C3.86979 22.8281 3.77604 22.2656 3.77604 17.6563C3.77604 13.0469 3.77604 12.5729 3.86979 10.6927C3.86979 9 4.24479 8.15104 4.43229 7.49479C4.71354 6.64583 5.09375 6.08333 5.75 5.51563C6.3125 4.95313 6.88021 4.57812 7.72396 4.19792C8.29167 3.91667 9.23438 3.72917 10.9271 3.63542C12.526 3.63542 13.0885 3.63542 16.2865 3.54167H16.3854ZM17.8906 8.8125C12.9948 8.8125 9.04167 12.7604 9.04167 17.6563C9.04167 22.5469 12.9948 26.5 17.8906 26.5C22.7813 26.5 26.7344 22.5469 26.7344 17.6563C26.7344 12.7604 22.7813 8.8125 17.8906 8.8125ZM17.8906 11.9167C21.0885 11.9167 23.6302 14.4531 23.6302 17.6563C23.6302 20.8542 21.0885 23.3958 17.8906 23.3958C14.6875 23.3958 12.151 20.8542 12.151 17.6563C12.151 14.4531 14.6875 11.9167 17.8906 11.9167Z" fill="#6D6C80"/>
</g>
</svg>
