<svg width="58" height="30" viewBox="0 0 58 30" fill="none" xmlns="http://www.w3.org/2000/svg">
<path fill-rule="evenodd" clip-rule="evenodd" d="M25.9844 0.161449H18.5521L20.5312 4.0052H45.0885C46.4219 4.0052 47.4479 4.31249 48.1667 4.92707C48.8802 5.54166 49.2396 6.41145 49.2396 7.54166C49.2396 8.68749 48.8646 9.5677 48.1198 10.1875C47.3698 10.8021 46.2969 11.1094 44.9062 11.1094H25.8125V18.9427L16.1771 0.161449H13.5989L0.249985 26.4219H4.58853L7.96873 19.75H21.8385L25.25 26.4219H29.9323V24.6979C30.1406 24.7448 30.3489 24.7864 30.5625 24.8229C30.8854 24.8854 31.1042 25.0312 31.2292 25.3333C31.2917 25.4635 31.3698 25.5937 31.4271 25.7292C32.276 27.7969 33.9844 28.6302 36.0521 28.901C36.9323 29.0156 37.8177 29.0677 38.6823 29.3073C38.8385 29.3542 39.0469 29.4479 39.1614 29.2865C39.3177 29.0729 39.0625 28.9635 38.9739 28.8073C37.8437 26.7708 35.9739 25.8385 33.8021 25.3542C33.6823 25.3281 33.5625 25.2812 33.4427 25.2083C35.0364 25.2865 36.6146 25.151 38.1719 24.8958C38.5052 24.8385 38.6875 25.0365 38.875 25.2344C39.8594 26.3073 41.0833 26.974 42.4427 27.4792C43.8594 28.0156 45.2344 27.8594 46.6146 27.4271C48.2708 26.901 49.6146 25.776 51.1458 25.0208C51.2552 24.9687 51.3906 24.8906 51.3385 24.7292C51.2864 24.599 51.1562 24.6615 51.0625 24.6667C50.0312 24.7344 49.0469 24.4271 48.0625 24.2083C46.5521 23.8646 45.0469 23.7917 43.5364 24.1719C43.0364 24.2969 42.6146 24.5781 42.151 24.7969C41.1927 25.2552 40.2187 25.5573 39.1614 24.7656C42.0469 24.1406 44.7083 23.1562 47.1979 21.7344C48.5573 20.8333 49.9114 19.9219 51 18.6875C51.2448 18.4167 51.6094 18.3906 51.9219 18.2864C54.6146 17.3906 56.1719 15.3906 57.1823 12.875C57.4687 12.1615 57.6302 11.4115 57.7135 10.651C57.7292 10.4896 57.8177 10.3073 57.625 10.1875C57.5625 10.151 57.5052 10.1354 57.4427 10.1354H57.4323C57.3177 10.1354 57.2083 10.1979 57.1094 10.2864C57 10.3854 56.8854 10.4844 56.7864 10.5885C56.4427 10.9479 56.0521 11.224 55.5573 11.3333C55.1146 11.4427 54.75 11.7031 54.401 11.9739C52.3906 13.5417 50.9792 15.4948 50.4375 18.0156C50.3542 18.4062 50.151 18.7031 49.9062 19.0104C48.6979 20.5208 47.0781 21.4792 45.3698 22.3073C42.9896 23.4635 40.4844 24.25 37.875 24.599C35.1719 24.9635 32.5052 24.974 29.9323 24.2865V14.9531H45.3333C47.776 14.9531 49.7448 14.2552 51.2396 12.8594C52.7344 11.4687 53.4844 9.67187 53.4844 7.47916C53.4844 5.16666 52.7292 3.36458 51.2239 2.08332C49.7187 0.802074 47.6094 0.161449 44.9062 0.161449H25.9844ZM14.9167 6.21874L20.0208 16.276H9.75519L14.9167 6.21874ZM48.776 15.0312C47.2239 15.8854 45.5364 16.5156 44.3802 17.9792C43.7083 18.8385 43.2812 19.8333 42.7344 20.7604C42.2292 21.625 41.8437 22.5469 41.1719 23.3021C41.1198 23.3646 41.0781 23.4375 41.0417 23.5C41.0833 23.6406 41.1823 23.6823 41.2917 23.6406C43.1614 22.9635 45.0208 22.2708 46.4687 20.8125C47.3177 19.9635 47.8906 19 48.0625 17.7864C48.1771 16.9062 48.3646 16.026 48.9427 15.3021C49 15.224 49.1042 15.1458 49.0052 15.0312C48.9792 14.9948 48.9479 14.9844 48.9114 14.9844C48.8646 14.9844 48.8177 15.0104 48.776 15.0312ZM43.2864 17.0417C43.2239 17.0417 43.1562 17.0885 43.0937 17.125C41.8229 17.9167 40.401 18.3229 38.9583 18.6667C37.2812 19.0781 35.9948 20.0677 34.8542 21.3021C34.625 21.5521 34.4062 21.8073 34.1927 22.0677C33.7656 22.5833 33.2708 23.0052 32.6146 23.1875C32.4635 23.2344 32.2969 23.3021 32.276 23.4479C32.2552 23.6302 32.4167 23.7292 32.5729 23.8229C33.1354 24.1562 33.7812 24.1927 34.4062 24.2656C34.7604 24.3021 35.125 24.2552 35.3437 24.25C37.4219 23.8542 39.2552 23.2552 40.5781 21.651C40.7969 21.3854 40.9792 21.1094 41.151 20.8177C41.8437 19.6771 42.4167 18.4635 43.3229 17.4635C43.4062 17.375 43.5052 17.2656 43.4219 17.1302C43.3802 17.0625 43.3333 17.0417 43.2917 17.0417H43.2864ZM56.9739 17.7917H56.9687C56.9114 17.7969 56.8594 17.8229 56.8073 17.8489C55.8542 18.4271 54.7708 18.526 53.6979 18.6406C52.0885 18.8125 50.6823 19.4583 49.4427 20.474C48.7656 21.026 48.0781 21.5521 47.1979 21.7396C47.0677 21.9635 47.0208 22.1562 47.3333 22.2969C48.3854 22.7604 49.4739 23.1615 50.6406 23.0417C51.75 22.9271 52.7812 22.526 53.6823 21.849C54.9687 20.8854 55.9531 19.6354 56.9271 18.375C56.9948 18.2917 57.0521 18.1979 57.0885 18.0989C57.1146 18.026 57.125 17.9219 57.0885 17.8646C57.0625 17.8125 57.0208 17.7969 56.9739 17.7917Z" fill="#6D6C80"/>
</svg>
