<svg width="36" height="25" viewBox="0 0 36 25" fill="none" xmlns="http://www.w3.org/2000/svg">
<mask id="mask0_1_78" style="mask-type:luminance" maskUnits="userSpaceOnUse" x="0" y="0" width="36" height="25">
<path d="M35.7143 0H0V25H35.7143V0Z" fill="white"/>
</mask>
<g mask="url(#mask0_1_78)">
<path d="M31.1036 7.74974C31.1036 8.25895 31.006 8.74025 30.8107 9.20761C30.6223 9.67496 30.3433 10.0865 29.9875 10.4423C29.6318 10.798 29.2203 11.0701 28.7529 11.2654C28.2855 11.4607 27.8042 11.5583 27.302 11.5583C26.7928 11.5583 26.3115 11.4607 25.8441 11.2654C25.3768 11.0701 24.9652 10.798 24.6095 10.4423C24.2537 10.0865 23.9747 9.67496 23.7864 9.20761C23.5911 8.74025 23.4934 8.25895 23.4934 7.74974C23.4934 7.24751 23.5911 6.75922 23.7864 6.29884C23.9747 5.83149 24.2537 5.41994 24.6095 5.06419C24.9652 4.70844 25.3768 4.42943 25.8441 4.23411C26.3115 4.04578 26.7928 3.94812 27.302 3.94812C27.8042 3.94812 28.2855 4.04578 28.7529 4.23411C29.2203 4.42943 29.6318 4.70844 29.9875 5.06419C30.3433 5.41994 30.6223 5.83149 30.8107 6.29884C31.006 6.75922 31.1036 7.24751 31.1036 7.74974Z" fill="black"/>
<path d="M32.2893 11.0422C31.787 11.8095 31.1383 12.4303 30.3571 12.8976C29.5688 13.372 28.7178 13.644 27.811 13.7277C28.1877 14.781 28.383 15.8692 28.383 16.9922V20.2498H30.5594C30.9918 20.2498 31.4104 20.1661 31.808 20.0056C32.2056 19.8382 32.5613 19.601 32.8682 19.2941C33.1682 18.9872 33.4053 18.6384 33.5728 18.2408C33.7402 17.8363 33.8169 17.4247 33.8169 16.9922V14.8159C33.8169 13.351 33.3077 12.0955 32.2893 11.0422Z" fill="black"/>
<path d="M11.5375 7.74974C11.5375 8.25895 11.4398 8.74025 11.2515 9.20761C11.0562 9.67496 10.7841 10.0865 10.4214 10.4423C10.0656 10.798 9.65409 11.0701 9.18673 11.2654C8.72635 11.4607 8.23807 11.5583 7.73584 11.5583C7.22663 11.5583 6.74533 11.4607 6.27797 11.2654C5.81062 11.0701 5.39907 10.798 5.04332 10.4423C4.68757 10.0865 4.41553 9.67496 4.22021 9.20761C4.0249 8.74025 3.92725 8.25895 3.92725 7.74974C3.92725 7.24751 4.0249 6.75922 4.22021 6.29884C4.41553 5.83149 4.68757 5.41994 5.04332 5.06419C5.39907 4.70844 5.81062 4.42943 6.27797 4.23411C6.74533 4.04578 7.22663 3.94812 7.73584 3.94812C8.23807 3.94812 8.72635 4.04578 9.18673 4.23411C9.65409 4.42943 10.0656 4.70844 10.4214 5.06419C10.7841 5.41994 11.0562 5.83149 11.2515 6.29884C11.4398 6.75922 11.5375 7.24751 11.5375 7.74974Z" fill="black"/>
<mask id="mask1_1_78" style="mask-type:luminance" maskUnits="userSpaceOnUse" x="1" y="10" width="8" height="12">
<path d="M1.21362 10.7143H8.92847V21.4286H1.21362V10.7143Z" fill="white"/>
</mask>
<g mask="url(#mask1_1_78)">
<path d="M2.74822 11.0422C1.72283 12.0955 1.21362 13.351 1.21362 14.8159V16.9922C1.21362 17.4247 1.29733 17.8363 1.45776 18.2408C1.62517 18.6384 1.86234 18.9872 2.16926 19.2941C2.47618 19.601 2.82495 19.8382 3.22255 20.0056C3.62713 20.1661 4.03868 20.2498 4.47116 20.2498H6.64749V16.9922C6.64749 15.8692 6.84281 14.781 7.22646 13.7277C6.31267 13.644 5.46167 13.372 4.68042 12.8976C3.89219 12.4303 3.25045 11.8095 2.74822 11.0422Z" fill="black"/>
</g>
<mask id="mask2_1_78" style="mask-type:luminance" maskUnits="userSpaceOnUse" x="7" y="10" width="20" height="15">
<path d="M7.14282 10.7143H26.7857V24.8675H7.14282V10.7143Z" fill="white"/>
</mask>
<g mask="url(#mask2_1_78)">
<path d="M23.3187 11.0352C22.963 11.4537 22.5654 11.8304 22.1259 12.1652C21.6865 12.5 21.2191 12.786 20.7169 13.0162C20.2146 13.2533 19.6915 13.4277 19.1544 13.5463C18.6173 13.6649 18.0662 13.7207 17.5151 13.7207C16.9641 13.7207 16.42 13.6649 15.8759 13.5463C15.3388 13.4277 14.8156 13.2533 14.3204 13.0162C13.8182 12.786 13.3438 12.5 12.9044 12.1652C12.4649 11.8304 12.0673 11.4537 11.7116 11.0352C10.7978 11.7536 10.0933 12.6395 9.58406 13.6788C9.07485 14.7252 8.82373 15.8273 8.82373 16.9922V21.3379C8.82373 21.7704 8.90046 22.1889 9.06787 22.5865C9.23528 22.9841 9.47245 23.3398 9.77239 23.6468C10.0793 23.9467 10.4351 24.1839 10.8327 24.3513C11.2303 24.5187 11.6488 24.6024 12.0813 24.6024H22.949C23.3815 24.6024 23.8 24.5187 24.1976 24.3513C24.5952 24.1839 24.951 23.9467 25.2579 23.6468C25.5648 23.3398 25.795 22.9841 25.9624 22.5865C26.1298 22.1889 26.2135 21.7704 26.2135 21.3379V16.9922C26.2065 15.8273 25.9554 14.7252 25.4462 13.6788C24.944 12.6395 24.2325 11.7536 23.3187 11.0352Z" fill="black"/>
</g>
<mask id="mask3_1_78" style="mask-type:luminance" maskUnits="userSpaceOnUse" x="10" y="0" width="14" height="13">
<path d="M10.7144 0.683594H23.2144V12.5H10.7144V0.683594Z" fill="white"/>
</mask>
<g mask="url(#mask3_1_78)">
<path d="M22.949 6.12444C22.949 6.84291 22.8095 7.53348 22.5375 8.20313C22.2585 8.86579 21.8679 9.45173 21.3586 9.96094C20.8494 10.4771 20.2635 10.8677 19.5939 11.1398C18.9312 11.4188 18.2336 11.5583 17.5152 11.5583C16.7967 11.5583 16.0992 11.4188 15.4365 11.1398C14.7738 10.8677 14.1809 10.4771 13.6717 9.96094C13.1625 9.45173 12.7719 8.86579 12.4929 8.20313C12.2208 7.53348 12.0813 6.84291 12.0813 6.12444C12.0813 5.399 12.2208 4.70843 12.4929 4.03878C12.7719 3.37612 13.1625 2.79018 13.6717 2.28097C14.1809 1.77177 14.7738 1.37416 15.4365 1.10212C16.0992 0.823104 16.7967 0.683594 17.5152 0.683594C18.2336 0.683594 18.9312 0.823104 19.5939 1.10212C20.2635 1.37416 20.8494 1.77177 21.3586 2.28097C21.8679 2.79018 22.2585 3.37612 22.5375 4.03878C22.8095 4.70843 22.949 5.399 22.949 6.12444Z" fill="black"/>
</g>
</g>
</svg>
