<svg width="25" height="25" viewBox="0 0 25 25" fill="none" xmlns="http://www.w3.org/2000/svg">
<mask id="mask0_1_183" style="mask-type:luminance" maskUnits="userSpaceOnUse" x="0" y="0" width="25" height="25">
<path d="M24.6665 0.666748H0.666504V24.6667H24.6665V0.666748Z" fill="white"/>
</mask>
<g mask="url(#mask0_1_183)">
<mask id="mask1_1_183" style="mask-type:luminance" maskUnits="userSpaceOnUse" x="1" y="1" width="23" height="23">
<path d="M1.57275 1.3125H23.7082V23.4479H1.57275V1.3125Z" fill="white"/>
</mask>
<g mask="url(#mask1_1_183)">
<path d="M22.8125 14.0572C23.2448 14.0572 23.599 13.703 23.599 13.2708V11.3697C23.599 10.9374 23.2448 10.5833 22.8125 10.5833H21.9948C21.5625 10.5833 21.1094 10.2447 20.9792 9.83325L20.2813 8.14055C20.0781 7.76034 20.1615 7.19784 20.4687 6.89055L21.0469 6.31242C21.349 6.00513 21.349 5.50513 21.0469 5.20304L19.6979 3.85409C19.3958 3.552 18.8958 3.552 18.5885 3.85409L18.0104 4.43221C17.7031 4.7395 17.1406 4.82284 16.7604 4.61971L15.0677 3.92179C14.6563 3.79679 14.3177 3.33846 14.3177 2.90617V2.08846C14.3177 1.65617 13.9635 1.302 13.5313 1.302H11.6302C11.1979 1.302 10.8437 1.65617 10.8437 2.08846V2.90617C10.8437 3.33846 10.5052 3.79679 10.0937 3.92179L8.40104 4.61971C8.02083 4.82284 7.45833 4.7395 7.15104 4.43221L6.57292 3.85409C6.27083 3.552 5.76563 3.552 5.46354 3.85409L4.11979 5.20304C3.8125 5.50513 3.8125 6.00513 4.11979 6.31242L4.69792 6.89055C5 7.19784 5.08333 7.76034 4.88021 8.14055L4.18229 9.83325C4.05729 10.2447 3.59896 10.5833 3.16667 10.5833H2.34896C1.91667 10.5833 1.5625 10.9374 1.5625 11.3697V13.2708C1.5625 13.703 1.91667 14.0572 2.34896 14.0572H3.16667C3.59896 14.0572 4.05729 14.3958 4.18229 14.8072L4.88021 16.4999C5.08333 16.8801 5 17.4426 4.69792 17.7499L4.11979 18.328C3.8125 18.6353 3.8125 19.1353 4.11979 19.4374L5.46354 20.7812C5.76563 21.0885 6.27083 21.0885 6.57292 20.7812L7.15104 20.203C7.45833 19.901 8.02083 19.8176 8.40104 20.0208L10.0937 20.7187C10.5052 20.8437 10.8437 21.302 10.8437 21.7343V22.552C10.8437 22.9843 11.1979 23.3385 11.6302 23.3385H13.5313C13.9635 23.3385 14.3177 22.9843 14.3177 22.552V21.7343C14.3177 21.302 14.6563 20.8437 15.0677 20.7187L16.7604 20.0208C17.1406 19.8176 17.7031 19.901 18.0104 20.203L18.5885 20.7812C18.8958 21.0885 19.3958 21.0885 19.7031 20.7812L21.0469 19.4374C21.349 19.1353 21.349 18.6353 21.0469 18.328L20.4687 17.7499C20.1615 17.4426 20.0781 16.8801 20.2813 16.4999L20.9792 14.8072C21.1042 14.3958 21.5625 14.0572 21.9948 14.0572H22.8125ZM12.5833 16.8541C10.0781 16.8541 8.04687 14.8228 8.04687 12.3176C8.04687 9.81763 10.0781 7.78638 12.5833 7.78638C15.0833 7.78638 17.1146 9.81763 17.1146 12.3176C17.1146 14.8228 15.0833 16.8541 12.5833 16.8541Z" fill="black"/>
</g>
</g>
</svg>
