<svg width="27" height="28" viewBox="0 0 27 28" fill="none" xmlns="http://www.w3.org/2000/svg">
<mask id="mask0_4_4851" style="mask-type:luminance" maskUnits="userSpaceOnUse" x="0" y="0" width="27" height="28">
<path d="M0.083374 0.656239H27V27.6406H0.083374V0.656239Z" fill="white"/>
</mask>
<g mask="url(#mask0_4_4851)">
<path d="M26.724 13.9739C26.724 14.8489 26.6407 15.7187 26.4688 16.5729C26.2969 17.4323 26.0469 18.2656 25.7084 19.0729C25.375 19.8802 24.9636 20.651 24.4792 21.375C23.9948 22.1042 23.4427 22.776 22.823 23.3958C22.2032 24.0156 21.5313 24.5677 20.8021 25.0521C20.0782 25.5364 19.3073 25.9479 18.5 26.2812C17.6927 26.6198 16.8594 26.8698 16 27.0417C15.1459 27.2135 14.2761 27.2969 13.4011 27.2969C12.5261 27.2969 11.6615 27.2135 10.8021 27.0417C9.94796 26.8698 9.11462 26.6198 8.30733 26.2812C7.49483 25.9479 6.72921 25.5364 6.00004 25.0521C5.27608 24.5677 4.60421 24.0156 3.98442 23.3958C3.36463 22.776 2.81254 22.1042 2.32817 21.375C1.83858 20.651 1.43233 19.8802 1.09379 19.0729C0.760457 18.2656 0.510457 17.4323 0.338582 16.5729C0.166708 15.7187 0.083374 14.8489 0.083374 13.9739C0.083374 13.0989 0.166708 12.2344 0.338582 11.375C0.510457 10.5208 0.760457 9.68749 1.09379 8.8802C1.43233 8.0677 1.83858 7.30207 2.32817 6.57291C2.81254 5.84895 3.36463 5.17186 3.98442 4.55728C4.60421 3.93749 5.27608 3.3854 6.00004 2.90103C6.72921 2.41145 7.49483 2.0052 8.30733 1.66666C9.11462 1.33332 9.94796 1.07811 10.8021 0.911447C11.6615 0.739572 12.5261 0.656239 13.4011 0.656239C14.2761 0.656239 15.1459 0.739572 16 0.911447C16.8594 1.07811 17.6927 1.33332 18.5 1.66666C19.3073 2.0052 20.0782 2.41145 20.8021 2.90103C21.5313 3.3854 22.2032 3.93749 22.823 4.55728C23.4427 5.17186 23.9948 5.84895 24.4792 6.57291C24.9636 7.30207 25.375 8.0677 25.7084 8.8802C26.0469 9.68749 26.2969 10.5208 26.4688 11.375C26.6407 12.2344 26.724 13.0989 26.724 13.9739Z" fill="#6D6C80"/>
</g>
<path d="M12.4739 14.8125C10.276 12.7031 10.6146 11.7135 10.6146 11.7135C11.5156 10.849 11.3906 9.69791 11.3906 9.69791C10.9271 9.08332 10.4583 8.46353 9.99477 7.84374C9.99477 7.84374 9.37498 6.8177 8.41665 7.37499C5.84373 8.89582 6.65102 11.4948 6.65102 11.4948C6.65102 11.526 7.35936 13.7292 10.6146 16.7656C13.8698 19.8333 16.2239 20.6354 16.2239 20.6354C16.2239 20.6354 18.8854 21.5052 20.1562 19.0573C20.6198 18.125 19.5677 17.4167 19.5677 17.4167C18.9166 16.8854 18.2656 16.3906 17.6146 15.8958C17.6146 15.8958 16.4375 15.7083 15.6354 16.6094C15.6354 16.6406 14.6406 16.9167 12.4739 14.8125Z" fill="#0A0910"/>
</svg>
