<svg width="19" height="18" viewBox="0 0 19 18" fill="none" xmlns="http://www.w3.org/2000/svg">
<mask id="mask0_2040_11140" style="mask-type:luminance" maskUnits="userSpaceOnUse" x="0" y="0" width="18" height="18">
<path d="M0.140625 0.817749H17.3698V17.9896H0.140625V0.817749Z" fill="white"/>
</mask>
<g mask="url(#mask0_2040_11140)">
<path d="M11.6979 17.9896H5.29167C2.46875 17.9896 0.171875 15.6927 0.171875 12.8698V6.46875C0.171875 3.64063 2.46875 1.34375 5.29167 1.34375H7.66146C8.01563 1.34375 8.30208 1.63021 8.30208 1.98438C8.30208 2.33854 8.01563 2.625 7.66146 2.625H5.29167C3.17708 2.625 1.45313 4.34896 1.45313 6.46875V12.8698C1.45313 14.9896 3.17708 16.7083 5.29167 16.7083H11.6979C13.8125 16.7083 15.5365 14.9896 15.5365 12.8698V9.21875C15.5365 8.86458 15.8229 8.57813 16.1771 8.57813C16.5313 8.57813 16.8177 8.86458 16.8177 9.21875V12.8698C16.8177 15.6927 14.5208 17.9896 11.6979 17.9896Z" fill="black"/>
</g>
<mask id="mask1_2040_11140" style="mask-type:luminance" maskUnits="userSpaceOnUse" x="5" y="0" width="14" height="12">
<path d="M5.36987 0H18.1303V11.4844H5.36987V0Z" fill="white"/>
</mask>
<g mask="url(#mask1_2040_11140)">
<path d="M7.21362 10.2969C6.89071 10.2917 6.573 10.0521 6.573 9.66669V8.38544C6.573 5.07294 9.10425 2.33857 12.3386 2.01565V0.703152C12.3386 0.453152 12.4845 0.229195 12.7084 0.119819C12.9376 0.0208614 13.2032 0.0573197 13.3959 0.218777L17.8751 4.05732C18.0157 4.18232 18.099 4.3594 18.099 4.5469C18.099 4.7344 18.0157 4.91149 17.8751 5.03128L13.3959 8.87503C13.2032 9.03648 12.9376 9.07294 12.7084 8.96878C12.4845 8.86461 12.3386 8.63544 12.3386 8.38544V7.1094C10.573 7.13024 8.91675 8.07815 8.00529 9.59378C7.81258 9.91149 7.64592 10.3073 7.21362 10.2969ZM13.6199 2.09378V2.62503C13.6199 2.97919 13.3334 3.26565 12.9792 3.26565C10.3959 3.26565 8.25529 5.18232 7.90633 7.6719C9.08862 6.51044 10.7084 5.82815 12.3959 5.82815H12.9792C13.3334 5.82815 13.6199 6.11461 13.6199 6.46878V6.99482L16.474 4.5469L13.6199 2.09378Z" fill="black"/>
</g>
</svg>
