<svg width="512" height="512" viewBox="0 0 512 512" fill="none" xmlns="http://www.w3.org/2000/svg">
<rect width="512" height="512" rx="256" fill="black"/>
<path fill-rule="evenodd" clip-rule="evenodd" d="M159.334 146.489L165.681 158.705C169.099 165.449 175.837 178.447 180.525 187.537C185.31 196.626 194.978 215.586 202.106 229.562C209.235 243.538 218.415 261.423 229.938 283.608L230.426 228.096L386.185 227.607L391.068 225.457C393.802 224.187 397.611 221.548 399.564 219.593C401.517 217.541 403.861 213.925 404.739 211.481C405.521 209.038 406.204 205.031 406.204 202.392C406.204 199.851 405.716 195.746 405.032 193.205C404.251 189.784 402.591 187.243 399.466 184.116C397.025 181.673 392.826 178.838 390.091 177.763C385.306 175.906 382.67 175.809 288.531 175.613C211.384 175.418 191.657 175.124 190.779 174.147C190.095 173.463 186.775 167.306 183.161 160.465C179.646 153.525 176.912 147.466 177.205 146.977C177.497 146.293 211.481 146 276.129 146C337.065 146 378.373 146.391 384.72 146.977C390.384 147.564 397.415 148.737 400.345 149.518C403.275 150.398 407.962 152.157 410.599 153.428C413.333 154.698 418.02 157.728 421.145 160.171C424.173 162.615 428.469 167.306 430.618 170.726C432.864 174.049 435.501 179.62 436.575 183.139C438.04 187.928 438.528 192.326 438.528 201.219C438.528 210.211 438.137 214.413 436.575 219.3C435.501 222.818 432.864 228.291 430.813 231.517C428.762 234.742 424.856 239.433 422.22 241.876C419.583 244.32 415.677 247.447 413.528 248.815C411.38 250.184 406.986 252.236 403.763 253.409C400.54 254.679 393.9 256.243 389.115 257.025C382.377 258.002 366.654 258.393 262.652 258.393V327.295L267.73 328.468C270.562 329.152 278.179 330.227 284.624 330.813C293.12 331.498 299.859 331.498 309.038 330.716C315.972 330.129 324.37 329.25 327.592 328.663C330.815 328.175 337.163 326.709 341.752 325.536C346.342 324.363 349.076 323.288 347.905 323.19C346.635 322.995 345.659 322.506 345.659 321.92C345.659 321.333 346.928 319.085 348.49 316.838C350.053 314.492 353.178 309.117 355.619 304.816C357.963 300.516 360.893 294.848 362.26 292.307C363.627 289.766 366.947 284.683 369.584 281.067C372.806 276.767 376.81 273.053 381.302 270.023C385.111 267.482 391.654 263.671 395.951 261.521C400.833 258.98 404.154 257.905 404.739 258.393C405.423 258.98 404.837 260.934 403.079 263.964C401.712 266.603 399.759 272.369 398.783 276.962C397.904 281.556 396.048 287.518 394.876 290.156C393.607 292.893 390.677 297.193 388.431 299.832C386.087 302.471 381.205 306.673 377.396 309.117C373.588 311.658 366.85 315.274 362.26 317.229C357.67 319.183 353.08 321.04 352.006 321.333C350.932 321.724 350.248 322.115 350.541 322.408C350.834 322.702 354.35 321.822 358.354 320.356C362.357 318.988 370.951 315.274 377.396 312.146C383.841 309.019 391.556 304.816 394.583 302.764C397.611 300.614 402.005 297.193 404.349 295.043C406.693 292.893 410.013 289.375 411.673 287.224C413.333 285.074 415.286 280.97 415.97 277.94C416.653 275.008 418.509 269.73 420.169 266.212C421.829 262.693 424.563 257.514 426.419 254.777C428.177 251.943 432.18 247.056 435.305 243.831C438.333 240.703 442.922 236.501 445.559 234.546C448.098 232.592 451.809 230.637 453.86 230.148C455.813 229.562 459.524 227.412 462.16 225.262C464.699 223.014 467.629 221.255 468.703 221.255C469.777 221.255 470.754 221.841 470.949 222.525C471.145 223.112 470.754 226.532 470.168 230.051C469.484 233.569 468.02 239.042 466.75 242.267C465.578 245.492 462.453 251.65 459.914 255.95C456.887 261.13 452.785 266.016 448.098 270.414C444.094 274.031 440.481 277.06 439.895 277.06C439.309 277.06 438.235 277.647 437.454 278.331C436.672 279.113 432.669 280.872 428.665 282.338C423.001 284.292 420.267 285.954 416.849 289.472C414.407 292.013 409.817 296.02 406.595 298.464C403.372 300.907 399.661 303.644 395.951 306.38L398.392 305.207C399.759 304.523 404.056 301.689 407.962 298.757C411.771 295.923 416.849 292.502 419.192 291.232C421.438 289.961 425.54 288.3 428.177 287.42C430.911 286.54 437.649 285.172 443.313 284.39C448.977 283.608 456.203 282.045 459.426 280.872C462.649 279.699 465.578 279.113 466.066 279.601C466.457 279.992 465.383 282.631 463.625 285.27C461.867 288.006 455.813 294.75 450.149 300.418C442.043 308.628 438.528 311.462 433.059 314.003C429.251 315.763 423.587 317.717 420.364 318.206C417.142 318.695 412.552 318.89 410.11 318.499C407.669 318.206 402.884 316.935 399.368 315.86C395.853 314.688 392.24 312.928 391.361 311.951C389.701 310.29 389.31 310.29 382.572 313.71C378.666 315.665 370.853 319.183 365.189 321.431C359.525 323.679 350.737 326.611 345.659 328.077C340.58 329.445 335.502 330.813 334.428 331.009C332.866 331.302 333.256 331.791 336.381 333.159C338.725 334.136 341.655 334.625 343.705 334.43C345.561 334.136 350.444 332.377 354.447 330.52C358.451 328.566 363.529 326.513 365.678 325.927C367.826 325.34 374.271 324.852 380.131 324.852C387.943 324.852 393.216 325.438 400.833 327.295C406.497 328.663 413.724 329.738 416.946 329.738C420.95 329.738 422.806 330.129 422.806 331.009C422.806 331.595 417.239 335.505 410.403 339.707C403.47 343.812 396.536 347.819 394.974 348.601C393.412 349.383 389.017 350.947 385.209 352.119C380.423 353.585 375.834 354.172 369.877 354.172C362.357 354.172 360.209 353.781 352.787 350.751C348.002 348.796 342.241 345.864 339.799 344.203C337.358 342.541 333.256 339.121 330.522 336.775C326.323 333.061 325.249 332.475 322.71 332.964C321.147 333.355 313.433 333.941 291.46 335.016L297.32 336.775C300.542 337.85 305.815 339.903 309.038 341.466C312.261 342.932 317.241 346.353 320.171 348.992C323.003 351.533 326.909 355.931 328.667 358.57C330.424 361.306 331.987 364.141 331.987 364.922C331.987 366.095 331.206 366.291 327.885 365.606C325.542 365.216 317.925 364.043 310.991 363.065C301.909 361.795 296.441 360.427 291.949 358.472C288.433 356.811 283.648 353.585 281.207 351.24C278.765 348.796 275.25 343.812 273.394 340.098C271.246 335.896 269.097 333.061 267.828 332.573C266.558 332.084 264.898 331.693 264.117 331.693C262.945 331.693 262.652 332.964 262.652 343.421L226.227 342.932L214.606 320.454C208.161 308.139 202.79 297.193 202.595 296.314C202.106 294.652 198.884 294.554 97.2255 295.043L72.7142 343.421H56.406C46.0546 343.421 40 343.03 40 342.444C40 341.857 44.2968 332.964 49.6678 322.702C54.9411 312.342 67.5386 287.518 77.597 267.678C87.6554 247.838 102.597 218.323 110.799 202.197C119.002 186.071 128.573 167.306 132.088 160.562C135.604 153.819 138.729 147.759 139.119 147.173C139.608 146.293 142.635 146 159.334 146.489ZM131.893 227.607C124.666 241.583 117.147 256.243 115.096 260.152L111.288 267.189H187.458C179.353 251.65 170.857 235.133 163.435 220.473C155.916 205.813 149.666 193.889 149.373 193.889C149.08 193.889 148.006 195.746 146.932 198.092C145.76 200.34 139.022 213.631 131.893 227.607ZM362.064 273.053C362.65 273.053 363.432 273.444 363.725 274.03C364.018 274.617 363.041 276.474 361.479 278.135C360.014 279.894 355.229 287.322 350.834 294.554C346.147 302.471 341.166 309.41 338.432 311.951C335.991 314.199 332.28 317.033 330.327 318.304C328.276 319.574 324.174 321.529 321.245 322.702C318.315 323.874 313.042 325.536 309.526 326.415C305.327 327.491 300.64 327.881 295.366 327.588C290.288 327.295 286.187 326.513 283.648 325.243C281.5 324.265 279.644 322.702 279.449 321.92C279.253 321.04 280.914 319.672 283.843 318.206C286.968 316.707 291.46 312.831 297.32 306.576C302.691 300.809 308.94 295.239 313.433 292.404C317.436 289.766 323.198 286.931 326.128 286.149C329.057 285.368 335.893 283.315 341.264 281.654C346.635 279.992 353.276 277.353 355.912 275.887C358.647 274.324 361.381 273.151 362.064 273.053Z" fill="white"/>
</svg>
