<svg width="543" height="422" viewBox="0 0 543 422" fill="none" xmlns="http://www.w3.org/2000/svg">
<mask id="mask0_2037_8867" style="mask-type:luminance" maskUnits="userSpaceOnUse" x="0" y="0" width="543" height="422">
<path d="M542.667 0H0V421.333H542.667V0Z" fill="white"/>
</mask>
<g mask="url(#mask0_2037_8867)">
<mask id="mask1_2037_8867" style="mask-type:luminance" maskUnits="userSpaceOnUse" x="1" y="0" width="542" height="411">
<path d="M1.33337 0.041626H542.031V410.667H1.33337V0.041626Z" fill="white"/>
</mask>
<g mask="url(#mask1_2037_8867)">
<path d="M167.844 4.83327C160.219 0.161399 143.125 -1.23964 132.073 4.77598C121.026 10.7916 112.708 20.7031 104.781 30.4687C91.1876 47.2187 77.9272 64.2291 65.0053 81.5051C38.0001 117.609 11.8282 156.38 3.95844 200.771C-5.96344 256.719 16.1564 316.344 57.4428 355.385C98.7293 394.427 157.375 413.125 214.078 409.458C286.573 404.766 352.839 366.422 424.604 355.141C452.99 350.672 483.62 349.917 507.063 333.312C536.339 312.573 545.589 272.167 540.412 236.667C530.146 166.219 467.542 106.896 396.641 100.432C348.703 96.0624 295.787 112.396 254.901 86.9843C220.099 65.3541 193.359 20.4635 167.844 4.83327Z" fill="#F8E7BF"/>
</g>
<mask id="mask2_2037_8867" style="mask-type:luminance" maskUnits="userSpaceOnUse" x="10" y="8" width="529" height="413">
<path d="M10.6667 8H538.667V420.635H10.6667V8Z" fill="white"/>
</mask>
<g mask="url(#mask2_2037_8867)">
<path d="M140.286 420.427C118.781 420.427 97.9844 416.141 79.6146 407.615C42.3177 390.307 15.5729 354.734 11.4844 316.99C8.89064 293.068 14.9688 268.484 20.3333 246.797L52.1094 118.292C58.9583 90.5885 66.724 59.1927 86.7552 35.7187C91.8177 29.8489 97.6042 24.8125 104.115 20.6041C110.625 16.3958 117.594 13.1875 125.026 10.9843C140.729 6.48954 156.161 7.9635 168.469 15.1458C179.755 21.7239 190.552 28.875 200.99 35.7916C225.026 51.7135 247.724 66.7552 273.578 73.3489C292.203 78.0989 311.776 79.6302 330.703 81.1093C346.974 82.3802 363.797 83.6979 380.047 87.0468C424.167 96.1406 464.927 122.151 494.818 160.297C524.714 198.448 540.224 244.245 538.5 289.255C537.833 306.526 533.755 323.37 527.01 336.677C519.016 352.437 507.344 363.214 493.25 367.844C470.391 375.354 447.406 365.661 425.177 356.292C413.615 351.411 401.656 346.37 389.745 343.714C361.078 337.318 328.172 343.865 289.146 363.729C278.943 368.922 268.766 374.682 258.927 380.25C238.557 391.781 217.495 403.698 194.938 411.312C177.219 417.339 159 420.375 140.286 420.427ZM142.635 10.8385C136.87 10.8697 131.224 11.6875 125.688 13.2968C118.484 15.4375 111.729 18.5468 105.417 22.625C99.1094 26.7083 93.5 31.5937 88.5938 37.2812C68.9271 60.3281 61.2344 91.427 54.4427 118.87L22.6719 247.375C17.0938 269.922 11.3281 293.229 13.875 316.729C17.8802 353.651 44.0781 388.469 80.6302 405.427C113.87 420.859 155.255 422.172 194.172 409.031C216.51 401.49 237.469 389.63 257.745 378.156C267.604 372.573 277.802 366.802 288.057 361.583C327.604 341.453 361.037 334.844 390.271 341.365C402.396 344.068 414.453 349.151 426.115 354.068C448.943 363.693 470.495 372.786 492.5 365.557C505.974 361.13 517.167 350.766 524.859 335.589C531.458 322.578 535.443 306.094 536.094 289.167C537.792 244.719 522.464 199.484 492.922 161.786C463.38 124.083 423.12 98.3802 379.563 89.4062C363.458 86.0885 346.714 84.776 330.516 83.5104C311.484 82.0208 291.807 80.4843 272.979 75.6823C246.734 68.9843 223.87 53.8385 199.661 37.802C189.245 30.901 178.479 23.7708 167.255 17.2239C163.51 15.0833 159.547 13.4739 155.37 12.3906C151.193 11.3072 146.948 10.7916 142.635 10.8385Z" fill="#D6C9A2"/>
</g>
</g>
</svg>
