<svg width="834" height="492" viewBox="0 0 834 492" fill="none" xmlns="http://www.w3.org/2000/svg">
<path d="M396.465 0.18678C378.219 1.49006 372.29 2.01137 363.883 3.11916C277.02 14.3925 187.81 53.8167 106.225 116.961C60.2194 152.605 18.7751 196.591 5.74229 223.699C-1.16508 238.035 -1.81672 248.396 3.65705 258.041C12.4542 273.68 46.9911 310.758 81.3976 341.646C139.394 393.582 204.948 435.482 267.767 460.635C307.777 476.666 345.768 486.114 387.017 490.22C402.721 491.849 442.406 491.849 458.371 490.22C508.938 485.202 555.856 471.387 605.772 446.69C661.226 419.321 716.551 379.441 766.336 330.959C796.116 302.026 825.179 268.336 831.891 254.978C834.172 250.482 834.172 250.221 833.846 244.486C833.194 232.692 827.395 222.461 808.562 199.784C800.612 190.27 770.246 159.578 758.125 148.956C711.207 107.642 664.224 75.6466 613.787 50.6888C556.117 22.0819 501.705 6.05154 445.338 1.09908C437.453 0.382272 402.526 -0.269367 396.465 0.18678ZM441.754 46.0622C492.908 50.5585 543.019 65.6114 596.193 92.3286C659.858 124.259 723.719 172.741 770.115 224.286C775.263 230.02 785.168 242.466 785.168 243.183C785.168 245.008 763.795 269.249 747.96 285.475C654.84 380.875 546.799 438.87 449.9 445.517C444.165 445.908 436.541 446.43 432.957 446.755C426.05 447.277 408.13 446.69 393.533 445.517C293.702 437.372 186.442 381.266 87.0017 285.214C72.8612 271.529 47.5124 243.444 47.5124 241.424C47.5124 239.078 59.9587 222.526 70.7759 210.536C113.719 162.706 180.642 114.224 243.656 85.2909C295.461 61.5061 343.292 48.8642 394.51 45.4106C404.415 44.7589 431.002 45.0847 441.754 46.0622Z" fill="black"/>
<path d="M402.33 106.73C362.58 113.181 331.367 132.144 308.755 163.553C297.09 179.844 289.857 197.308 286.208 218.095C284.514 227.804 284.514 252.632 286.208 262.406C288.749 276.938 292.464 288.277 298.719 300.593C315.662 334.087 346.289 358.914 384.084 369.862C432.371 383.807 485.544 369.275 521.254 332.393C530.442 322.944 539.24 310.823 541.781 304.242C542.172 308.477 543.28 300.267 541.781 304.242C539.696 310.237 541.39 300.723 541.781 304.242C548.623 285.018 554.618 241.163 552.207 221.549C547.32 182.125 523.535 145.828 489.454 125.758C473.098 116.113 454.201 109.727 435.303 107.381C427.353 106.339 406.892 105.948 402.33 106.73Z" fill="black"/>
</svg>
