<svg xmlns="http://www.w3.org/2000/svg" width="28.24" height="28.24" fill="none"><g transform="translate(1.199 1.081)"><path d="M 26.334 11.818 C 27.07 12.553 27.07 13.744 26.334 14.48 L 14.774 26.04 C 14.406 26.408 13.928 26.592 13.443 26.592 C 12.965 26.592 12.479 26.408 12.112 26.04 L 0.552 14.48 C -0.184 13.744 -0.184 12.553 0.552 11.818 C 1.287 11.082 2.478 11.082 3.214 11.818 L 13.443 22.047 L 23.672 11.818 C 24.407 11.082 25.599 11.082 26.334 11.818 Z M 12.112 14.774 C 12.479 15.142 12.965 15.325 13.443 15.325 C 13.928 15.325 14.406 15.142 14.774 14.774 L 26.334 3.214 C 27.07 2.478 27.07 1.287 26.334 0.552 C 25.599 -0.184 24.407 -0.184 23.672 0.552 L 13.443 10.781 L 3.214 0.552 C 2.478 -0.184 1.287 -0.184 0.552 0.552 C -0.184 1.287 -0.184 2.478 0.552 3.214 Z" fill="rgb(0, 0, 0)"></path></g></svg>