<svg xmlns="http://www.w3.org/2000/svg" width="34.34" height="35.61" fill="none"><g transform="translate(0.106 0.835)"><path d="M 33.883 16.937 C 33.883 18.05 33.777 19.156 33.558 20.243 C 33.34 21.336 33.022 22.395 32.591 23.422 C 32.167 24.449 31.644 25.429 31.028 26.35 C 30.412 27.277 29.71 28.132 28.921 28.92 C 28.133 29.708 27.279 30.41 26.351 31.026 C 25.43 31.642 24.45 32.166 23.423 32.589 C 22.396 33.02 21.337 33.338 20.244 33.557 C 19.157 33.775 18.051 33.881 16.938 33.881 C 15.825 33.881 14.726 33.775 13.633 33.557 C 12.546 33.338 11.486 33.02 10.46 32.589 C 9.426 32.166 8.453 31.642 7.525 31.026 C 6.604 30.41 5.75 29.708 4.962 28.92 C 4.173 28.132 3.471 27.277 2.855 26.35 C 2.232 25.429 1.716 24.449 1.285 23.422 C 0.861 22.395 0.543 21.336 0.325 20.243 C 0.106 19.156 0 18.05 0 16.937 C 0 15.824 0.106 14.725 0.325 13.632 C 0.543 12.546 0.861 11.486 1.285 10.459 C 1.716 9.426 2.232 8.452 2.855 7.525 C 3.471 6.604 4.173 5.743 4.962 4.961 C 5.75 4.173 6.604 3.471 7.525 2.855 C 8.453 2.232 9.426 1.716 10.46 1.285 C 11.486 0.861 12.546 0.537 13.633 0.325 C 14.726 0.106 15.825 0 16.938 0 C 18.051 0 19.157 0.106 20.244 0.325 C 21.337 0.537 22.396 0.861 23.423 1.285 C 24.45 1.716 25.43 2.232 26.351 2.855 C 27.279 3.471 28.133 4.173 28.921 4.961 C 29.71 5.743 30.412 6.604 31.028 7.525 C 31.644 8.452 32.167 9.426 32.591 10.459 C 33.022 11.486 33.34 12.546 33.558 13.632 C 33.777 14.725 33.883 15.824 33.883 16.937 Z" fill="rgb(0, 0, 0)"></path></g><path d="M 15.865 18.838 C 13.07 16.156 13.5 14.897 13.5 14.897 C 14.646 13.798 14.487 12.334 14.487 12.334 C 13.898 11.552 13.301 10.764 12.712 9.976 C 12.712 9.976 11.924 8.671 10.705 9.379 C 7.432 11.314 8.459 14.619 8.459 14.619 C 8.459 14.659 9.36 17.461 13.5 21.322 C 17.64 25.224 20.634 26.244 20.634 26.244 C 20.634 26.244 24.019 27.35 25.636 24.237 C 26.225 23.051 24.887 22.15 24.887 22.15 C 24.059 21.475 23.231 20.845 22.403 20.216 C 22.403 20.216 20.906 19.978 19.886 21.124 C 19.886 21.163 18.621 21.514 15.865 18.838 Z" fill="rgb(255, 255, 255)"></path></svg>