<svg xmlns="http://www.w3.org/2000/svg" width="103" height="52.97" fill="none"><path d="M 46.145 0.285 L 32.946 0.285 L 36.461 7.072 L 80.071 7.072 C 82.439 7.072 84.261 7.614 85.537 8.7 C 86.804 9.785 87.443 11.32 87.443 13.316 C 87.443 15.339 86.777 16.893 85.454 17.988 C 84.122 19.073 82.217 19.615 79.747 19.615 L 45.839 19.615 L 45.839 33.446 L 28.728 0.285 L 24.15 0.285 L 0.444 46.652 L 8.149 46.652 L 14.151 34.872 L 38.782 34.872 L 44.841 46.652 L 53.156 46.652 L 53.156 43.608 C 53.526 43.691 53.895 43.765 54.275 43.829 C 54.848 43.939 55.237 44.197 55.459 44.73 C 55.57 44.96 55.708 45.19 55.81 45.429 C 57.318 49.08 60.352 50.551 64.024 51.03 C 65.587 51.232 67.159 51.324 68.694 51.747 C 68.972 51.83 69.342 51.995 69.545 51.71 C 69.823 51.333 69.37 51.14 69.212 50.864 C 67.205 47.268 63.885 45.622 60.028 44.767 C 59.815 44.721 59.602 44.638 59.39 44.509 C 62.22 44.648 65.022 44.408 67.788 43.958 C 68.38 43.857 68.704 44.206 69.037 44.556 C 70.785 46.45 72.958 47.627 75.372 48.519 C 77.888 49.466 80.33 49.19 82.781 48.427 C 85.722 47.498 88.109 45.512 90.828 44.178 C 91.022 44.086 91.263 43.949 91.17 43.664 C 91.078 43.434 90.846 43.544 90.68 43.553 C 88.849 43.673 87.101 43.13 85.352 42.744 C 82.67 42.137 79.997 42.008 77.315 42.68 C 76.427 42.9 75.678 43.397 74.854 43.783 C 73.153 44.592 71.423 45.126 69.545 43.728 C 74.669 42.624 79.396 40.886 83.817 38.376 C 86.231 36.785 88.636 35.175 90.569 32.996 C 91.004 32.518 91.651 32.472 92.206 32.288 C 96.988 30.706 99.754 27.175 101.548 22.733 C 102.056 21.473 102.343 20.149 102.491 18.806 C 102.519 18.521 102.676 18.199 102.334 17.988 C 102.223 17.923 102.121 17.896 102.01 17.896 L 101.992 17.896 C 101.788 17.896 101.594 18.006 101.418 18.162 C 101.224 18.337 101.021 18.512 100.845 18.696 C 100.234 19.33 99.541 19.818 98.662 20.011 C 97.876 20.204 97.228 20.664 96.609 21.142 C 93.038 23.91 90.532 27.359 89.57 31.81 C 89.422 32.499 89.061 33.023 88.627 33.566 C 86.481 36.233 83.604 37.925 80.571 39.387 C 76.344 41.429 71.895 42.817 67.261 43.434 C 62.46 44.077 57.725 44.096 53.156 42.882 L 53.156 26.402 L 80.506 26.402 C 84.844 26.402 88.34 25.17 90.994 22.705 C 93.649 20.25 94.981 17.077 94.981 13.206 C 94.981 9.123 93.64 5.941 90.967 3.678 C 88.294 1.416 84.548 0.285 79.747 0.285 Z M 26.49 10.98 L 35.554 28.738 L 17.324 28.738 Z M 86.619 26.54 C 83.863 28.048 80.866 29.161 78.813 31.745 C 77.62 33.263 76.861 35.019 75.89 36.656 C 74.993 38.183 74.309 39.81 73.116 41.144 C 73.023 41.254 72.949 41.383 72.884 41.493 C 72.958 41.741 73.134 41.815 73.328 41.741 C 76.649 40.546 79.951 39.323 82.522 36.748 C 84.03 35.249 85.047 33.548 85.352 31.405 C 85.556 29.851 85.889 28.297 86.915 27.018 C 87.017 26.881 87.202 26.742 87.026 26.54 C 86.98 26.476 86.925 26.457 86.86 26.457 C 86.777 26.457 86.694 26.503 86.619 26.54 Z M 76.871 30.09 C 76.76 30.09 76.639 30.173 76.528 30.237 C 74.272 31.635 71.747 32.352 69.185 32.959 C 66.206 33.686 63.922 35.433 61.896 37.612 C 61.489 38.054 61.101 38.504 60.722 38.964 C 59.963 39.875 59.084 40.62 57.919 40.941 C 57.651 41.024 57.355 41.144 57.318 41.401 C 57.281 41.723 57.568 41.898 57.845 42.063 C 58.844 42.652 59.991 42.716 61.101 42.845 C 61.73 42.909 62.377 42.827 62.766 42.817 C 66.456 42.119 69.712 41.061 72.061 38.228 C 72.45 37.759 72.773 37.272 73.079 36.757 C 74.309 34.743 75.326 32.6 76.935 30.835 C 77.083 30.678 77.259 30.485 77.111 30.246 C 77.037 30.127 76.954 30.09 76.88 30.09 Z M 101.178 31.414 L 101.169 31.414 C 101.067 31.423 100.974 31.469 100.882 31.515 C 99.189 32.536 97.265 32.711 95.36 32.913 C 92.502 33.217 90.005 34.357 87.803 36.15 C 86.601 37.125 85.38 38.054 83.817 38.385 C 83.586 38.78 83.502 39.12 84.057 39.369 C 85.926 40.187 87.859 40.895 89.931 40.684 C 91.901 40.482 93.732 39.773 95.332 38.578 C 97.617 36.877 99.365 34.67 101.095 32.444 C 101.215 32.297 101.317 32.131 101.381 31.957 C 101.428 31.828 101.446 31.644 101.381 31.543 C 101.335 31.451 101.261 31.423 101.178 31.414 Z" fill="rgb(0, 0, 0)"></path></svg>