<svg width="834" height="702" viewBox="0 0 834 702" fill="none" xmlns="http://www.w3.org/2000/svg">
<path d="M396.465 112.187C378.219 113.49 372.29 114.011 363.883 115.119C277.02 126.393 187.81 165.817 106.225 228.961C60.2194 264.605 18.7751 308.591 5.74229 335.699C-1.16508 350.035 -1.81672 360.396 3.65705 370.041C12.4542 385.68 46.9911 422.758 81.3976 453.646C139.394 505.582 204.948 547.482 267.767 572.635C307.777 588.666 345.768 598.114 387.017 602.22C402.721 603.849 442.406 603.849 458.371 602.22C508.938 597.202 555.856 583.387 605.772 558.69C661.226 531.321 716.551 491.441 766.336 442.959C796.116 414.026 825.179 380.336 831.891 366.978C834.172 362.482 834.172 362.221 833.846 356.486C833.194 344.692 827.395 334.461 808.562 311.784C800.612 302.27 770.246 271.578 758.125 260.956C711.207 219.642 664.224 187.647 613.787 162.689C556.117 134.082 501.705 118.052 445.338 113.099C437.453 112.382 402.526 111.731 396.465 112.187ZM441.754 158.062C492.908 162.559 543.019 177.611 596.193 204.329C659.858 236.259 723.719 284.741 770.115 336.286C775.263 342.02 785.168 354.466 785.168 355.183C785.168 357.008 763.795 381.249 747.96 397.475C654.84 492.875 546.799 550.87 449.9 557.517C444.165 557.908 436.541 558.43 432.957 558.755C426.05 559.277 408.13 558.69 393.533 557.517C293.702 549.372 186.442 493.266 87.0017 397.214C72.8612 383.529 47.5124 355.444 47.5124 353.424C47.5124 351.078 59.9587 334.526 70.7759 322.536C113.719 274.706 180.642 226.224 243.656 197.291C295.461 173.506 343.292 160.864 394.51 157.411C404.415 156.759 431.002 157.085 441.754 158.062Z" fill="black"/>
<path d="M402.33 218.73C362.58 225.181 331.367 244.144 308.755 275.553C297.09 291.844 289.857 309.308 286.208 330.095C284.514 339.804 284.514 364.632 286.208 374.406C288.749 388.938 292.464 400.277 298.719 412.593C315.662 446.087 346.289 470.914 384.084 481.862C432.371 495.807 485.544 481.275 521.254 444.393C530.442 434.944 539.24 422.823 541.781 416.242C542.172 420.477 543.28 412.267 541.781 416.242C539.696 422.237 541.39 412.723 541.781 416.242C548.623 397.018 554.618 353.163 552.207 333.549C547.32 294.125 523.535 257.828 489.454 237.758C473.098 228.113 454.201 221.727 435.303 219.381C427.353 218.339 406.892 217.948 402.33 218.73Z" fill="black"/>
<line x1="250.047" y1="687.297" x2="541.047" y2="15.297" stroke="black" stroke-width="74"/>
</svg>
