<svg xmlns="http://www.w3.org/2000/svg" width="33.1" height="27.39" fill="none"><g transform="translate(1.356 0.483)"><path d="M 30.875 14.736 C 30.875 20.435 26.436 25.068 20.991 25.068 L 13.865 25.068 C 12.931 25.068 12.177 24.279 12.177 23.303 C 12.177 22.575 12.594 21.952 13.19 21.681 C 13.398 21.591 13.628 21.539 13.865 21.539 L 20.991 21.539 C 24.575 21.539 27.492 18.49 27.492 14.744 C 27.492 10.99 24.575 7.941 20.991 7.941 L 10.568 7.941 L 10.568 11.057 C 10.568 11.816 9.965 12.356 9.318 12.356 C 9.11 12.356 8.902 12.296 8.701 12.176 L 0.62 7.303 C -0.207 6.8 -0.207 5.554 0.62 5.051 L 8.701 0.178 C 9.534 -0.325 10.568 0.298 10.568 1.304 L 10.568 4.413 L 20.991 4.413 C 26.443 4.413 30.875 9.045 30.875 14.736 Z" fill="rgb(0, 0, 0)"></path></g></svg>