<svg width="35" height="38" viewBox="0 0 35 38" fill="none" xmlns="http://www.w3.org/2000/svg">
<path d="M24.3346 30.2051C24.1982 31.7894 23.8085 33.4283 22.9783 34.8041C21.8247 36.7138 19.8837 38 17.0503 38C14.2169 38 12.2779 36.7138 11.1262 34.8041C10.2941 33.4283 9.90436 31.7894 9.76795 30.2051H4.12446C2.96303 30.2051 1.92436 29.9167 1.15072 29.2366C0.365384 28.5429 0.0477436 27.6172 0.00487179 26.7423C-0.0730769 25.0936 0.794103 23.3476 1.90682 22.2427C3.23195 20.9253 3.82631 19.1208 4.12446 16.8856C4.27256 15.7729 4.34077 14.6076 4.40897 13.3857L4.41677 13.2571C4.48303 12.0957 4.55123 10.8797 4.69738 9.70656C5.00138 7.2882 5.67174 4.76462 7.63605 2.88605C9.61205 0.989949 12.6287 0 17.0503 0C21.4719 0 24.4905 0.991897 26.4665 2.8841C28.4308 4.76462 29.1012 7.2882 29.4052 9.70656C29.5513 10.8797 29.6195 12.0957 29.6858 13.2571L29.6916 13.3857C29.7618 14.6076 29.8281 15.7729 29.9781 16.8856C30.2763 19.1208 30.8706 20.9253 32.1957 22.2446C33.3416 23.3827 34.199 25.1385 34.0957 26.7929C34.0412 27.6659 33.706 28.5779 32.9207 29.2542C32.149 29.9206 31.122 30.2051 29.9781 30.2051H24.3346Z" fill="black"/>
</svg>
