<?xml version="1.0" encoding="UTF-8"?>
<svg width="24" height="24" viewBox="0 0 24 24" fill="none" xmlns="http://www.w3.org/2000/svg">
  <path d="M20.4 3.6C18.2 1.4 15.2 0 12 0 5.4 0 0 5.4 0 12c0 2.1.5 4.2 1.4 6L0 24l6.2-1.4c1.8.9 3.8 1.4 5.8 1.4 6.6 0 12-5.4 12-12 0-3.2-1.4-6.2-3.6-8.4zM12 22c-1.8 0-3.6-.5-5.2-1.4l-.4-.2-3.8.9.9-3.8-.2-.4C2.5 15.6 2 13.8 2 12 2 6.5 6.5 2 12 2c2.6 0 5.1 1 6.9 2.9C20.9 6.9 22 9.4 22 12c0 5.5-4.5 10-10 10zm5.5-7.4c-.3-.1-1.8-.9-2.1-1-.3-.1-.5-.1-.7.1-.2.3-.8.9-1 1.1-.2.2-.4.2-.7.1-.3-.1-1.3-.5-2.4-1.5-.9-.8-1.5-1.8-1.7-2.1-.2-.3 0-.5.1-.6.2-.2.3-.4.5-.6.2-.2.2-.3.3-.5.1-.2.1-.4 0-.6-.1-.2-.7-1.8-1-2.4-.3-.6-.5-.6-.7-.6h-.6c-.2 0-.5.1-.8.4-.3.3-1 1-1 2.4s1 2.8 1.2 3c.1.2 2 3 4.8 4.2.7.3 1.2.5 1.6.6.7.2 1.3.2 1.8.1.5-.1 1.8-.7 2-1.4.3-.7.3-1.3.2-1.4-.1-.2-.3-.3-.6-.4z" fill="black"/>
</svg> 