<svg width="312" height="158" viewBox="0 0 312 158" fill="none" xmlns="http://www.w3.org/2000/svg">
<path fill-rule="evenodd" clip-rule="evenodd" d="M139.621 0H99.3124L110.036 20.7958H243.314C250.543 20.7958 256.096 22.449 259.998 25.7792C263.899 29.1094 265.838 33.8052 265.838 39.9146C265.838 46.1198 263.804 50.8875 259.758 54.2177C255.689 57.524 249.873 59.2011 242.309 59.2011H138.688V101.559L86.4346 0H72.4078L0 142.001H23.5295L41.8888 105.92H117.145L135.648 142.001H161.045V132.681C162.193 132.921 163.342 133.16 164.491 133.376C166.239 133.688 167.436 134.502 168.106 136.107C168.417 136.826 168.872 137.521 169.159 138.264C173.779 149.452 183.042 153.956 194.268 155.418C199.056 156.041 203.867 156.328 208.558 157.622C209.372 157.886 210.521 158.389 211.144 157.478C211.981 156.328 210.593 155.729 210.114 154.915C203.987 143.894 193.837 138.839 182.061 136.251C181.391 136.107 180.768 135.844 180.122 135.437C188.763 135.868 197.308 135.149 205.782 133.735C207.577 133.424 208.582 134.502 209.588 135.58C214.925 141.402 221.556 144.996 228.952 147.727C236.612 150.626 244.08 149.788 251.572 147.44C260.572 144.589 267.849 138.503 276.179 134.43C276.753 134.167 277.495 133.712 277.208 132.849C276.945 132.13 276.251 132.49 275.724 132.514C270.123 132.873 264.785 131.244 259.447 130.022C251.261 128.201 243.075 127.77 234.888 129.83C232.16 130.525 229.862 132.034 227.372 133.232C222.178 135.7 216.888 137.329 211.12 133.041C226.798 129.687 241.232 124.344 254.756 116.677C262.128 111.79 269.477 106.854 275.389 100.194C276.705 98.7084 278.692 98.5886 280.368 98.0136C294.993 93.174 303.443 82.3448 308.924 68.7365C310.48 64.9032 311.365 60.8542 311.796 56.7334C311.892 55.8469 312.395 54.8646 311.342 54.2417C311.006 54.0261 310.671 53.9302 310.36 53.9302H310.288C309.666 53.9542 309.068 54.2896 308.541 54.7448C307.919 55.2959 307.32 55.8229 306.77 56.374C304.903 58.3146 302.796 59.8 300.115 60.423C297.722 60.998 295.735 62.4115 293.82 63.873C282.929 72.3542 275.269 82.9198 272.325 96.5521C271.894 98.6605 270.793 100.29 269.453 101.919C262.894 110.113 254.109 115.264 244.822 119.744C231.92 126.021 218.324 130.262 204.154 132.154C189.505 134.119 175.023 134.167 161.045 130.453V79.973H244.655C257.891 79.973 268.567 76.2115 276.682 68.6886C284.796 61.1417 288.865 51.4386 288.865 39.5792C288.865 27.049 284.772 17.3219 276.61 10.3979C268.423 3.47396 256.982 0 242.309 0H139.621ZM79.5887 32.7511L107.283 87.1365H51.5591L79.5887 32.7511ZM263.301 80.4042C254.899 85.0282 245.732 88.4542 239.46 96.3605C235.822 101.008 233.5 106.375 230.508 111.406C227.779 116.054 225.697 121.062 222.035 125.134C221.771 125.47 221.556 125.877 221.34 126.213C221.58 126.979 222.106 127.171 222.681 126.979C232.83 123.29 242.931 119.552 250.806 111.67C255.402 107.094 258.514 101.871 259.423 95.3063C260.07 90.5626 261.075 85.7948 264.211 81.8657C264.546 81.4344 265.096 81.0271 264.57 80.4042C264.402 80.2365 264.235 80.1646 264.067 80.1646C263.804 80.1646 263.54 80.2844 263.301 80.4042ZM233.548 91.2813H233.524C233.165 91.2813 232.83 91.5209 232.495 91.7126C225.577 96.0251 217.846 98.2053 210.042 100.074C200.947 102.278 193.957 107.669 187.758 114.305C186.537 115.671 185.34 117.06 184.167 118.474C181.845 121.253 179.164 123.529 175.598 124.535C174.808 124.775 173.874 125.134 173.803 125.925C173.659 126.907 174.545 127.434 175.382 127.938C178.446 129.758 181.941 129.95 185.34 130.333C187.255 130.549 189.242 130.285 190.438 130.262C201.713 128.105 211.646 124.895 218.827 116.222C220 114.784 221.029 113.275 221.939 111.694C225.697 105.513 228.809 98.9719 233.74 93.5573C234.17 93.0782 234.697 92.5032 234.242 91.7605C234.027 91.4011 233.787 91.2813 233.548 91.2813ZM307.775 95.3542H307.751C307.464 95.3542 307.177 95.498 306.913 95.6657C301.719 98.7563 295.831 99.3074 290.014 99.9303C281.277 100.841 273.666 104.339 266.915 109.849C263.277 112.82 259.519 115.695 254.756 116.701C254.062 117.899 253.798 118.929 255.474 119.696C261.195 122.212 267.107 124.392 273.426 123.721C279.434 123.098 285.059 120.942 289.942 117.276C296.908 112.053 302.27 105.321 307.536 98.4928C307.895 98.0376 308.23 97.5344 308.421 97.0073C308.565 96.624 308.637 96.0251 308.421 95.7136C308.254 95.4501 308.038 95.3542 307.823 95.3542H307.775Z" fill="white"/>
</svg>
